# xmcd CD database file
#
# Track frame offsets:
#	150
#	20064
#	34766
#	54781
#	68485
#	93437
#	113737
#	127161
#	146213
#	167995
#	185070
#	200177
#	217811
#	236781
#	255020
#	273272
#	285677
#	298209
#
# Disc length: 4238 seconds
#
# Revision: 0
# Processed by: cddbd v1.5.2PL0 Copyright (c) Steve Scherf et al.
# Submitted via: CDex 1.91
#
DISCID=18108c12
DTITLE=De gregori - Il bandito e il campione
DYEAR=1900
DGENRE=Blues
TTITLE0=Il bandito e il campione
TTITLE1=Viva l'Italia
TTITLE2=Titanic
TTITLE3=I muscoli del capitano
TTITLE4=Sangue su sangue
TTITLE5=Adelante! Adelante!
TTITLE6=La storia
TTITLE7=Generale
TTITLE8=Quattro cani
TTITLE9=La ballata dell'uomo ragno
TTITLE10=Pezzi di vetro
TTITLE11=Vecchi amici
TTITLE12=I matti
TTITLE13=Alice
TTITLE14=Rimmel
TTITLE15=Buonanotte fiorellino
TTITLE16=Renoir
TTITLE17=Vita spericolata
EXTD=
EXTT0=
EXTT1=
EXTT2=
EXTT3=
EXTT4=
EXTT5=
EXTT6=
EXTT7=
EXTT8=
EXTT9=
EXTT10=
EXTT11=
EXTT12=
EXTT13=
EXTT14=
EXTT15=
EXTT16=
EXTT17=
PLAYORDER=
